<svg xmlns="http://www.w3.org/2000/svg" width="384" height="112" viewBox="0 0 384 112"><g transform="translate(-248 -10)"><text transform="translate(248 101)" fill="#f9fd50" font-size="100" font-family="Arial-BoldMT, Arial" font-weight="700"><tspan x="0" y="0">W nterA</tspan></text><g transform="translate(0 -1)"><g transform="translate(-35 12)"><line y2="20" transform="translate(394.5 10.5)" fill="none" stroke="#f9fd50" stroke-width="2"/><line x1="18" y2="11" transform="translate(385.5 14.5)" fill="none" stroke="#f9fd50" stroke-width="2"/><line x1="18" y1="11" transform="translate(385.5 14.5)" fill="none" stroke="#f9fd50" stroke-width="2"/><line x1="3" y1="3" transform="translate(391.5 11.5)" fill="none" stroke="#f9fd50" stroke-width="2"/><line y1="3" x2="3" transform="translate(394.5 11.5)" fill="none" stroke="#f9fd50" stroke-width="2"/><line x2="3" y2="2" transform="translate(400.5 16.5)" fill="none" stroke="#f9fd50" stroke-width="2"/><line y2="4" transform="translate(400.5 12.5)" fill="none" stroke="#f9fd50" stroke-width="2"/><line y1="4" transform="translate(388.5 12.5)" fill="none" stroke="#f9fd50" stroke-width="2"/><line y1="2" x2="3" transform="translate(385.5 16.5)" fill="none" stroke="#f9fd50" stroke-width="2"/><line y1="4" x2="3" transform="translate(391.5 25.5)" fill="none" stroke="#f9fd50" stroke-width="2"/><line x1="3" y1="4" transform="translate(394.5 25.5)" fill="none" stroke="#f9fd50" stroke-width="2"/><line x1="3" y2="2" transform="translate(400.5 21.5)" fill="none" stroke="#f9fd50" stroke-width="2"/><line y2="4" transform="translate(400.5 23.5)" fill="none" stroke="#f9fd50" stroke-width="2"/><line x2="3" y2="2" transform="translate(385.5 21.5)" fill="none" stroke="#f9fd50" stroke-width="2"/><line y2="4" transform="translate(388.5 23.5)" fill="none" stroke="#f9fd50" stroke-width="2"/></g></g><rect width="13" height="52" transform="translate(353 49)" fill="#f9fd50"/><line x2="16" transform="translate(250.5 42.5)" fill="none" stroke="#002d40" stroke-width="2"/><line x2="16" transform="translate(252.5 49.5)" fill="none" stroke="#002d40" stroke-width="2"/><line x2="26" transform="translate(282.5 42.5)" fill="none" stroke="#002d40" stroke-width="2"/><line x2="16" transform="translate(323.5 42.5)" fill="none" stroke="#002d40" stroke-width="2"/><line x2="16" transform="translate(322.5 49.5)" fill="none" stroke="#002d40" stroke-width="2"/><line x2="30" transform="translate(280.5 49.5)" fill="none" stroke="#002d40" stroke-width="2"/><line x2="16" transform="translate(253.5 56.5)" fill="none" stroke="#002d40" stroke-width="2"/><line x2="14" transform="translate(352.5 56.5)" fill="none" stroke="#002d40" stroke-width="2"/><line x2="15" transform="translate(321.5 56.5)" fill="none" stroke="#002d40" stroke-width="2"/><line x2="32" transform="translate(279.5 56.5)" fill="none" stroke="#002d40" stroke-width="2"/><line x2="36" transform="translate(277.5 63.5)" fill="none" stroke="#002d40" stroke-width="2"/><path d="M0,.053H15.848" transform="translate(318.942 63.447)" fill="none" stroke="#002d40" stroke-width="2"/><line x2="16" transform="translate(255.5 63.5)" fill="none" stroke="#002d40" stroke-width="2"/><line x2="14" transform="translate(352.5 63.5)" fill="none" stroke="#002d40" stroke-width="2"/><line x2="18" transform="translate(376.5 63.5)" fill="none" stroke="#002d40" stroke-width="2"/><line x2="47" transform="translate(376.5 56.5)" fill="none" stroke="#002d40" stroke-width="2"/><line x2="16" transform="translate(408.5 63.5)" fill="none" stroke="#002d40" stroke-width="2"/><line x2="15" transform="translate(438.5 63.5)" fill="none" stroke="#002d40" stroke-width="2"/><line x2="30" transform="translate(432.5 56.5)" fill="none" stroke="#002d40" stroke-width="2"/><line x2="30" transform="translate(432.5 49.5)" fill="none" stroke="#002d40" stroke-width="2"/><line x2="15" transform="translate(438.5 42.5)" fill="none" stroke="#002d40" stroke-width="2"/><line x2="39" transform="translate(472.5 56.5)" fill="none" stroke="#002d40" stroke-width="2"/><line x2="16" transform="translate(468.5 63.5)" fill="none" stroke="#002d40" stroke-width="2"/><line x2="15" transform="translate(499.5 63.5)" fill="none" stroke="#002d40" stroke-width="2"/><line x2="18" transform="translate(526.5 63.5)" fill="none" stroke="#002d40" stroke-width="2"/><line x2="34" transform="translate(525.5 56.5)" fill="none" stroke="#002d40" stroke-width="2"/><line x2="39" transform="translate(575.5 56.5)" fill="none" stroke="#002d40" stroke-width="2"/><line x2="18" transform="translate(571.5 63.5)" fill="none" stroke="#002d40" stroke-width="2"/><line x2="18" transform="translate(599.5 63.5)" fill="none" stroke="#002d40" stroke-width="2"/><line x2="33" transform="translate(578.5 49.5)" fill="none" stroke="#002d40" stroke-width="2"/><line x2="29" transform="translate(580.5 42.5)" fill="none" stroke="#002d40" stroke-width="2"/><text transform="translate(473 29)" fill="#f9fd50" font-size="20" font-family="Arial-BoldMT, Arial" font-weight="700"><tspan x="0" y="0">auto škola</tspan></text></g></svg>